<svg id="Layer_1" data-name="Layer 1" xmlns="http://www.w3.org/2000/svg" viewBox="0 0 16 16"><defs><style>.cls-1{fill:#333;}.cls-2{fill:#fff;}.cls-3{fill:#b3b3b3;}.cls-4{fill:#1a1a1a;}</style></defs><title>Artboard 1</title><path class="cls-1" d="M4,10.75a2.75,2.75,0,0,1,0-5.5h7.22a.53.53,0,0,1,.53.53v4.44a.53.53,0,0,1-.53.53Z"/><path d="M11.22,5.5a.28.28,0,0,1,.28.28v4.44a.28.28,0,0,1-.28.28H4a2.5,2.5,0,0,1,0-5h7.22m0-.5H4a3,3,0,0,0,0,6h7.22a.78.78,0,0,0,.78-.78V5.78A.78.78,0,0,0,11.22,5Z"/><path class="cls-2" d="M9.25,4.75V4.4a.15.15,0,0,1,.15-.15h1.2a.15.15,0,0,1,.15.15v.35Z"/><path d="M10.6,4H9.4a.4.4,0,0,0-.4.4V5h2V4.4a.4.4,0,0,0-.4-.4Z"/><path class="cls-2" d="M9.4,11.75a.15.15,0,0,1-.15-.15v-.35h1.5v.35a.15.15,0,0,1-.15.15Z"/><path d="M11,11H9v.6a.4.4,0,0,0,.4.4h1.2a.4.4,0,0,0,.4-.4V11Z"/><path class="cls-2" d="M4.25,4.75V4.4a.15.15,0,0,1,.15-.15H5.6a.15.15,0,0,1,.15.15v.35Z"/><path d="M5.6,4H4.4a.4.4,0,0,0-.4.4V5H6V4.4A.4.4,0,0,0,5.6,4Z"/><path class="cls-2" d="M4.4,11.75a.15.15,0,0,1-.15-.15v-.35h1.5v.35a.15.15,0,0,1-.15.15Z"/><path d="M6,11H4v.6a.4.4,0,0,0,.4.4H5.6a.4.4,0,0,0,.4-.4V11Z"/><circle class="cls-3" cx="4" cy="8" r="0.75"/><path d="M4,7.5a.5.5,0,1,1-.5.5A.5.5,0,0,1,4,7.5M4,7A1,1,0,1,0,5,8,1,1,0,0,0,4,7Z"/><path class="cls-3" d="M6,9.75a1.75,1.75,0,0,1,0-3.5h7.75v3.5Z"/><path d="M13.5,6.5v3H6a1.5,1.5,0,0,1,0-3h7.5M14,6H6a2,2,0,0,0,0,4h8V6Z"/><path class="cls-4" d="M14,9.75c-.35,0-.75-.75-.75-1.75s.4-1.75.75-1.75.75.75.75,1.75S14.35,9.75,14,9.75Z"/><path d="M14,6.5c.12,0,.5.53.5,1.5s-.38,1.5-.5,1.5S13.5,9,13.5,8s.38-1.5.5-1.5M14,6c-.55,0-1,.9-1,2s.45,2,1,2,1-.9,1-2-.45-2-1-2Z"/><path class="cls-3" d="M14.08,6.55C14,8,14,9,13.24,9.24v0c.19.47.48.74.78.74.55,0,1-.9,1-2s-.39-1.88-.89-2Z"/><path d="M14,6.5c.12,0,.5.53.5,1.5s-.38,1.5-.5,1.5S13.5,9,13.5,8s.38-1.5.5-1.5M14,6c-.55,0-1,.9-1,2s.45,2,1,2,1-.9,1-2-.45-2-1-2Z"/></svg>